<?xml version="1.0" encoding="UTF-8"?>
<svg id="close" width="24" height="24" version="1.1" xmlns="http://www.w3.org/2000/svg">
 <g id="active-center">
  <rect id="rect856" width="24" height="24" opacity=".001"/>
  <path id="path858" d="m8.0031 8.0002h0.99961c0.010364-1.2e-4 0.020782-4.601e-4 0.031238 0 0.25485 0.0112 0.50967 0.12858 0.68723 0.31249l2.2804 2.2812 2.3116-2.2812c0.26552-0.23049 0.4465-0.30549 0.68723-0.31249h0.99961v0.99997c0 0.28646-0.03433 0.55063-0.2499 0.74998l-2.2804 2.2812 2.2491 2.2499c0.18811 0.18816 0.28113 0.45344 0.28114 0.71873v0.99997h-0.99961c-0.2652-1e-5 -0.53038-0.0931-0.71847-0.28124l-2.2804-2.2812-2.2804 2.2812c-0.18809 0.18818-0.45328 0.28124-0.71847 0.28124h-0.99961v-0.99997c-2.9e-6 -0.26528 0.093024-0.53056 0.28114-0.71873l2.2804-2.2499-2.2804-2.2812c-0.21066-0.19462-0.30304-0.46924-0.28114-0.74998z" fill="#aaaaac" fill-rule="evenodd"/>
 </g>
 <g id="hover-center">
  <rect id="rect878" x="24" width="24" height="24" opacity=".001"/>
  <circle id="circle880" cx="36" cy="12" r="12" fill="#fff" opacity=".18"/>
  <path id="path882" d="m32.003 8.0002h0.99961c0.01036-1.2e-4 0.02078-4.601e-4 0.03124 0 0.25485 0.0112 0.50967 0.12858 0.68723 0.31249l2.2804 2.2812 2.3116-2.2812c0.26552-0.23049 0.4465-0.30549 0.68723-0.31249h0.99961v0.99997c0 0.28646-0.03433 0.55063-0.2499 0.74998l-2.2804 2.2812 2.2491 2.2499c0.18811 0.18816 0.28113 0.45344 0.28114 0.71873v0.99997h-0.99961c-0.2652-1e-5 -0.53038-0.0931-0.71847-0.28124l-2.2804-2.2812-2.2804 2.2812c-0.18809 0.18818-0.45328 0.28124-0.71847 0.28124h-0.99961v-0.99997c-3e-6 -0.26528 0.09302-0.53056 0.28114-0.71873l2.2804-2.2499-2.2804-2.2812c-0.21066-0.19462-0.30304-0.46924-0.28114-0.74998z" fill="#aaaaac" fill-rule="evenodd"/>
 </g>
 <g id="pressed-center">
  <rect id="rect861" x="48" width="24" height="24" opacity=".001"/>
  <circle id="circle863" cx="60" cy="12" r="12" fill="#fff" opacity=".28"/>
  <path id="path865" d="m56.003 8.0002h0.99961c0.01036-1.2e-4 0.02078-4.601e-4 0.03124 0 0.25485 0.0112 0.50967 0.12858 0.68723 0.31249l2.2804 2.2812 2.3116-2.2812c0.26552-0.23049 0.4465-0.30549 0.68723-0.31249h0.9996v0.99997c0 0.28646-0.03433 0.55063-0.2499 0.74998l-2.2804 2.2812 2.2491 2.2499c0.18811 0.18816 0.28113 0.45344 0.28114 0.71873v0.99997h-0.9996c-0.2652-1e-5 -0.53038-0.0931-0.71847-0.28124l-2.2804-2.2812-2.2804 2.2812c-0.18809 0.18818-0.45328 0.28124-0.71847 0.28124h-0.99961v-0.99997c-2e-6 -0.26528 0.09302-0.53056 0.28114-0.71873l2.2804-2.2499-2.2804-2.2812c-0.21066-0.19462-0.30304-0.46924-0.28114-0.74998z" fill="#aaaaac" fill-rule="evenodd"/>
 </g>
 <g id="inactive-center">
  <rect id="rect868" x="72" width="24" height="24" opacity=".001"/>
  <path id="path870" d="m80.003 8.0002h0.99961c0.01036-1.2e-4 0.02078-4.601e-4 0.03124 0 0.25485 0.0112 0.50967 0.12858 0.68723 0.31249l2.2804 2.2812 2.3116-2.2812c0.26552-0.23049 0.4465-0.30549 0.68723-0.31249h0.9996v0.99997c0 0.28646-0.03433 0.55063-0.2499 0.74998l-2.2804 2.2812 2.2491 2.2499c0.18811 0.18816 0.28113 0.45344 0.28114 0.71873v0.99997h-0.99961c-0.2652-1e-5 -0.53038-0.0931-0.71847-0.28124l-2.2804-2.2812-2.2804 2.2812c-0.18809 0.18818-0.45328 0.28124-0.71847 0.28124h-0.99961v-0.99997c-3e-6 -0.26528 0.09302-0.53056 0.28114-0.71873l2.2804-2.2499-2.2804-2.2812c-0.21066-0.19462-0.30304-0.46924-0.28114-0.74998z" fill="#aaaaac" fill-rule="evenodd" opacity=".5"/>
 </g>
 <g id="deactivated-center">
  <rect id="rect873" x="96" width="24" height="24" opacity=".001"/>
  <path id="path875" d="m104 8.0002h0.99961c0.0109-1.2e-4 0.0208-4.601e-4 0.0312 0 0.25485 0.0112 0.50967 0.12858 0.68723 0.31249l2.2804 2.2812 2.3116-2.2812c0.26551-0.23049 0.44649-0.30549 0.68723-0.31249h0.99965v0.99997c0 0.28646-0.0343 0.55063-0.24991 0.74998l-2.2803 2.2812 2.2491 2.2499c0.18812 0.18816 0.28114 0.45344 0.28115 0.71873v0.99997h-0.99961c-0.26519-1e-5 -0.53038-0.0931-0.71846-0.28124l-2.2804-2.2812-2.2804 2.2812c-0.18809 0.18818-0.45328 0.28124-0.71847 0.28124h-0.99961v-0.99997c0-0.26528 0.0931-0.53056 0.28114-0.71873l2.2804-2.2499-2.2804-2.2812c-0.21065-0.19462-0.30303-0.46924-0.28114-0.74998z" fill="#aaaaac" fill-rule="evenodd" opacity=".5"/>
 </g>
</svg>
