<?xml version="1.0" encoding="UTF-8"?>
<svg id="help" width="24" height="24" version="1.1" xmlns="http://www.w3.org/2000/svg">
 <g id="active-center">
  <rect id="rect948" width="24" height="24" opacity=".001"/>
  <path id="path950" d="m12 8c-1.2705 9.552e-4 -2.5765 0.80214-3 2h3c0.55228 0 1 0.44772 1 1s-0.44772 1-1 1h-1v2h1c1.6569 0 3-1.3431 3-3 0-1.6569-1.3431-3-3-3zm-1 7v1h2v-1z" fill="#aaaaac" fill-rule="evenodd"/>
 </g>
 <g id="hover-center">
  <rect id="rect960" x="24" width="24" height="24" opacity=".001"/>
  <circle id="circle962" cx="36" cy="12" r="12" fill="#fff" opacity=".18"/>
  <path id="path964" d="m36 8c-1.2705 9.551e-4 -2.5765 0.80214-3 2h3c0.55228 0 1 0.44772 1 1s-0.44772 1-1 1h-1v2h1c1.6569 0 3-1.3431 3-3 0-1.6569-1.3431-3-3-3zm-1 7v1h2v-1z" fill="#aaaaac" fill-rule="evenodd"/>
 </g>
 <g id="pressed-center">
  <rect id="rect955" x="48" width="24" height="24" opacity=".001"/>
  <circle id="circle957" cx="60" cy="12" r="12" fill="#fff" opacity=".28"/>
  <path id="path953" d="m60 8c-1.2705 9.55e-4 -2.5765 0.80214-3 2h3c0.55228 0 1 0.44772 1 1s-0.44772 1-1 1h-1v2h1c1.6569 0 3-1.3431 3-3s-1.3431-3-3-3zm-1 7v1h2v-1z" fill="#aaaaac" fill-rule="evenodd"/>
 </g>
 <g id="inactive-center">
  <rect id="rect972" x="72" width="24" height="24" opacity=".001"/>
  <path id="path974" d="m84 8c-1.2705 9.551e-4 -2.5765 0.80214-3 2h3c0.55228 0 1 0.44772 1 1s-0.44772 1-1 1h-1v2h1c1.6569 0 3-1.3431 3-3 0-1.6569-1.3431-3-3-3zm-1 7v1h2v-1z" fill="#fff" fill-rule="evenodd" opacity=".25"/>
 </g>
 <g id="deactivated-center">
  <rect id="rect967" x="96" width="24" height="24" opacity=".001"/>
  <path id="path969" d="m108 8c-1.2705 9.55e-4 -2.5765 0.80214-3 2h3c0.55228 0 1 0.44772 1 1s-0.44772 1-1 1h-1v2h1c1.6568 0 3-1.3431 3-3 0-1.6569-1.3432-3-3-3zm-1 7v1h2v-1z" fill="#fff" fill-rule="evenodd" opacity=".25"/>
 </g>
</svg>
