<?xml version="1.0" encoding="UTF-8"?>
<svg id="keepbelow" width="24" height="24" version="1.1" xmlns="http://www.w3.org/2000/svg">
 <g id="active-center">
  <rect id="rect1132" width="24" height="24" opacity=".001"/>
  <path id="path1134" d="m12 16c-1.6667-2-3.3333-4-5-6h10c-1.6667 2-3.3333 4-5 6z" fill="#aaaaac" fill-rule="evenodd"/>
 </g>
 <g id="hover-center">
  <rect id="rect1137" x="24" width="24" height="24" opacity=".001"/>
  <circle id="circle1139" cx="36" cy="12" r="12" fill="#fff" opacity=".18"/>
  <path id="path1141" d="m36 16-5-6h10z" fill="#aaaaac" fill-rule="evenodd"/>
 </g>
 <g id="pressed-center">
  <rect id="rect1144" x="48" width="24" height="24" opacity=".001"/>
  <circle id="circle1146" cx="60" cy="12" r="12" fill="#fff" opacity=".28"/>
  <path id="path1148" d="m60 16c-1.6667-2-3.3333-4-5-6h10c-1.6667 2-3.3333 4-5 6z" fill="#aaaaac" fill-rule="evenodd"/>
 </g>
 <g id="inactive-center">
  <rect id="rect1151" x="72" width="24" height="24" opacity=".001"/>
  <path id="path1153" d="m84 16c-1.6667-2-3.3333-4-5-6h10c-1.6667 2-3.3333 4-5 6z" fill="#aaaaac" fill-rule="evenodd" opacity=".5"/>
 </g>
 <g id="deactivated-center">
  <rect id="rect1156" x="96" width="24" height="24" opacity=".001"/>
  <path id="path1158" d="m108 16-5-6h10z" fill="#aaaaac" fill-rule="evenodd" opacity=".5"/>
 </g>
</svg>
