<?xml version="1.0" encoding="UTF-8"?>
<svg id="keepabove" width="24" height="24" version="1.1" xmlns="http://www.w3.org/2000/svg">
 <g id="active-center">
  <rect id="rect1040" width="24" height="24" opacity=".001"/>
  <path id="path1042" d="m12 8c1.6667 2 3.3333 4 5 6h-10c1.6667-2 3.3333-4 5-6z" fill="#aaaaac" fill-rule="evenodd"/>
 </g>
 <g id="hover-center">
  <rect id="rect1045" x="24" width="24" height="24" opacity=".001"/>
  <circle id="circle1047" cx="36" cy="12" r="12" fill="#fff" opacity=".18"/>
  <path id="path1049" d="m36 8 5 6h-10z" fill="#aaaaac" fill-rule="evenodd"/>
 </g>
 <g id="pressed-center">
  <rect id="rect1052" x="48" width="24" height="24" opacity=".001"/>
  <circle id="circle1054" cx="60" cy="12" r="12" fill="#fff" opacity=".28"/>
  <path id="path1056" d="m60 8c1.6667 2 3.3333 4 5 6h-10c1.6667-2 3.3333-4 5-6z" fill="#aaaaac" fill-rule="evenodd"/>
 </g>
 <g id="inactive-center">
  <rect id="rect1059" x="72" width="24" height="24" opacity=".001"/>
  <path id="path1061" d="m84 8c1.6667 2 3.3333 4 5 6h-10c1.6667-2 3.3333-4 5-6z" fill="#aaaaac" fill-rule="evenodd" opacity=".5"/>
 </g>
 <g id="deactivated-center">
  <rect id="rect1064" x="96" width="24" height="24" opacity=".001"/>
  <path id="path1066" d="m108 8 5 6h-10z" fill="#aaaaac" fill-rule="evenodd" opacity=".5"/>
 </g>
</svg>
