<?xml version="1.0" encoding="UTF-8"?>
<svg id="maximize" width="24" height="24" version="1.1" xmlns="http://www.w3.org/2000/svg">
 <g id="active-center">
  <rect id="rect1238" width="24" height="24" opacity=".001"/>
  <path id="path1240" d="m8 8v8h8v-8zm2 2h4v4h-4v-4z" fill="#aaaaac" fill-rule="evenodd"/>
 </g>
 <g id="hover-center">
  <rect id="rect1231" x="24" width="24" height="24" opacity=".001"/>
  <circle id="circle1233" cx="36" cy="12" r="12" fill="#fff" opacity=".18"/>
  <path id="path1235" d="m32 8v8h8v-8zm2 2h4v4h-4v-4z" fill="#aaaaac" fill-rule="evenodd"/>
 </g>
 <g id="pressed-center">
  <rect id="rect1224" x="48" width="24" height="24" opacity=".001"/>
  <circle id="circle1226" cx="60" cy="12" r="12" fill="#fff" opacity=".28"/>
  <path id="path1228" d="m56 8v8h8v-8zm2 2h4v4h-4v-4z" fill="#aaaaac" fill-rule="evenodd"/>
 </g>
 <g id="inactive-center">
  <rect id="rect1243" x="72" width="24" height="24" opacity=".001"/>
  <path id="path1245" d="m80 8v8h8v-8zm2 2h4v4h-4v-4z" fill="#fff" fill-rule="evenodd" opacity=".25"/>
 </g>
 <g id="deactivated-center">
  <rect id="rect1248" x="96" width="24" height="24" opacity=".001"/>
  <path id="path1250" d="m104 8v8h8v-8zm2 2h4v4h-4v-4z" fill="#fff" fill-rule="evenodd" opacity=".25"/>
 </g>
</svg>
