<?xml version="1.0" encoding="UTF-8" standalone="no"?>
<svg
   width="24"
   height="24"
   version="1.1"
   id="svg977"
   sodipodi:docname="help.svg"
   inkscape:version="1.1.1 (3bf5ae0d25, 2021-09-20)"
   xmlns:inkscape="http://www.inkscape.org/namespaces/inkscape"
   xmlns:sodipodi="http://sodipodi.sourceforge.net/DTD/sodipodi-0.dtd"
   xmlns="http://www.w3.org/2000/svg"
   xmlns:svg="http://www.w3.org/2000/svg">
  <defs
     id="defs981" />
  <sodipodi:namedview
     id="namedview979"
     pagecolor="#505050"
     bordercolor="#ffffff"
     borderopacity="1"
     inkscape:pageshadow="0"
     inkscape:pageopacity="0"
     inkscape:pagecheckerboard="1"
     showgrid="false"
     inkscape:zoom="26.666667"
     inkscape:cx="91.51875"
     inkscape:cy="11.98125"
     inkscape:window-width="1920"
     inkscape:window-height="1015"
     inkscape:window-x="0"
     inkscape:window-y="0"
     inkscape:window-maximized="1"
     inkscape:current-layer="deactivated-center" />
  <g
     id="active-center">
    <rect
       style="fill:#000000;opacity:.00100002"
       width="24"
       height="24"
       x="0"
       y="0"
       id="rect948" />
    <path
       style="fill-rule:evenodd;fill:#aaaaac"
       d="M 12,8 C 10.729479,8.0009552 9.4235068,8.8021406 9,9.9999998 h 3 c 0.552285,0 1,0.4477152 1,1.0000002 0,0.552285 -0.447715,1 -1,1 h -1 v 1.999999 h 1 c 1.656854,0 3,-1.343145 3,-2.999999 0,-1.6568543 -1.343146,-3 -3,-3 z m -1,7 v 1 h 2 v -1 z"
       id="path950" />
  </g>
  <g
     id="hover-center">
    <rect
       style="fill:#000000;opacity:.00100002"
       width="24"
       height="24"
       x="24"
       y="0"
       id="rect960" />
    <circle
       style="fill:#ffffff;opacity:.18000004"
       cx="36"
       cy="12"
       r="12"
       id="circle962" />
    <path
       style="fill-rule:evenodd;fill:#aaaaac"
       d="m 36,7.9999997 c -1.270521,9.551e-4 -2.576493,0.8021411 -3,2.0000001 h 3 c 0.552285,0 1,0.4477152 1,1.0000002 0,0.552285 -0.447715,1 -1,1 h -1 v 2 h 1 c 1.656854,0 3,-1.343146 3,-3 C 39,9.3431458 37.656854,7.9999998 36,7.9999997 Z M 35,15 v 1 h 2 v -1 z"
       id="path964" />
  </g>
  <g
     id="pressed-center">
    <rect
       style="fill:#000000;opacity:.00100002"
       width="24"
       height="24"
       x="48"
       y="0"
       id="rect955" />
    <circle
       style="fill:#ffffff;opacity:.28000004"
       cx="60"
       cy="12"
       r="12"
       id="circle957" />
    <path
       style="fill-rule:evenodd;fill:#aaaaac"
       d="m 60,8 c -1.270521,9.55e-4 -2.576493,0.802141 -3,2 h 3 c 0.552285,0 1,0.447715 1,1 0,0.552285 -0.447715,1 -1,1 h -1 v 2 h 1 c 1.656854,0 3,-1.343146 3,-3 0,-1.656854 -1.343146,-3 -3,-3 z m -1,7 v 1 h 2 v -1 z"
       id="path953" />
  </g>
  <g
     id="inactive-center">
    <rect
       style="fill:#000000;opacity:.00100002"
       width="24"
       height="24"
       x="72"
       y="0"
       id="rect972" />
    <path
       style="fill-rule:evenodd;fill:#ffffff;opacity:.25"
       d="m 84,7.9999997 c -1.270521,9.551e-4 -2.576493,0.8021411 -3,2.0000001 h 3 c 0.552285,0 1,0.4477152 1,1.0000002 0,0.552285 -0.447715,1 -1,1 h -1 v 2 h 1 c 1.656854,0 3,-1.343146 3,-3 C 87,9.3431458 85.656854,7.9999998 84,7.9999997 Z M 83,15 v 1 h 2 v -1 z"
       id="path974" />
  </g>
  <g
     id="deactivated-center">
    <rect
       style="fill:#000000;opacity:.00100002"
       width="24"
       height="24"
       x="96"
       y="0"
       id="rect967" />
    <path
       style="fill-rule:evenodd;fill:#ffffff;opacity:.25"
       d="m 108,7.9999998 c -1.27053,9.55e-4 -2.5765,0.802141 -3,2 h 3 c 0.55228,0 1,0.4477152 1,1.0000002 0,0.552285 -0.44772,1 -1,1 h -1 v 2 h 1 c 1.65685,0 3,-1.343146 3,-3 0,-1.6568542 -1.34315,-3.0000002 -3,-3.0000002 z M 107,15 v 1 h 2 v -1 z"
       id="path969" />
  </g>
</svg>
