<?xml version="1.0" encoding="UTF-8" standalone="no"?>
<svg
   width="24"
   height="24"
   version="1.1"
   id="svg1161"
   sodipodi:docname="keepbelow.svg"
   inkscape:version="1.1.1 (3bf5ae0d25, 2021-09-20)"
   xmlns:inkscape="http://www.inkscape.org/namespaces/inkscape"
   xmlns:sodipodi="http://sodipodi.sourceforge.net/DTD/sodipodi-0.dtd"
   xmlns="http://www.w3.org/2000/svg"
   xmlns:svg="http://www.w3.org/2000/svg">
  <defs
     id="defs1165" />
  <sodipodi:namedview
     id="namedview1163"
     pagecolor="#505050"
     bordercolor="#ffffff"
     borderopacity="1"
     inkscape:pageshadow="0"
     inkscape:pageopacity="0"
     inkscape:pagecheckerboard="1"
     showgrid="false"
     inkscape:zoom="6.6666667"
     inkscape:cx="24.825"
     inkscape:cy="15.675"
     inkscape:window-width="1920"
     inkscape:window-height="1015"
     inkscape:window-x="0"
     inkscape:window-y="0"
     inkscape:window-maximized="1"
     inkscape:current-layer="deactivated-center" />
  <g
     id="active-center">
    <rect
       style="fill:#000000;opacity:.00100002"
       width="24"
       height="24"
       x="0"
       y="0"
       id="rect1132" />
    <path
       style="fill-rule:evenodd;fill:#aaaaac"
       d="M 12.000001,16 C 10.333334,13.999999 8.666667,12 7,10 c 3.333334,0 6.666667,0 10,0 -1.666667,2 -3.333333,3.999999 -4.999999,6 z"
       id="path1134" />
  </g>
  <g
     id="hover-center">
    <rect
       style="fill:#000000;opacity:.00100002"
       width="24"
       height="24"
       x="24"
       y="0"
       id="rect1137" />
    <circle
       style="fill:#ffffff;opacity:.18000004"
       cx="36"
       cy="12"
       id="circle1139"
       r="12" />
    <path
       style="fill-rule:evenodd;fill:#aaaaac"
       d="M 35.999998,16 31,10 h 10 z"
       id="path1141" />
  </g>
  <g
     id="pressed-center">
    <rect
       style="fill:#000000;opacity:.00100002"
       width="24"
       height="24"
       x="48"
       y="0"
       id="rect1144" />
    <circle
       style="fill:#ffffff;opacity:.28000004"
       cx="60"
       cy="12"
       id="circle1146"
       r="12" />
    <path
       style="fill-rule:evenodd;fill:#aaaaac"
       d="M 59.999999,16 C 58.333334,14 56.666667,12 55,10 c 3.333334,0 6.666666,0 10,0 -1.666668,2 -3.333334,4 -5.000001,6 z"
       id="path1148" />
  </g>
  <g
     id="inactive-center">
    <rect
       style="fill:#000000;opacity:.00100002"
       width="24"
       height="24"
       x="72"
       y="0"
       id="rect1151" />
    <path
       style="opacity:0.5;fill-rule:evenodd;fill:#aaaaac"
       d="m 84,16 c -1.666667,-2 -3.333334,-4 -5,-6 3.333333,0 6.666667,0 10,0 -1.666667,2 -3.333333,4 -5,6 z"
       id="path1153" />
  </g>
  <g
     id="deactivated-center">
    <rect
       style="fill:#000000;opacity:.00100002"
       width="24"
       height="24"
       x="96"
       y="0"
       id="rect1156" />
    <path
       style="opacity:0.5;fill-rule:evenodd;fill:#aaaaac"
       d="m 108,16 -5,-6 h 10 z"
       id="path1158" />
  </g>
</svg>
