<?xml version="1.0" encoding="UTF-8" standalone="no"?>
<svg
   width="24"
   height="24"
   version="1.1"
   id="svg1069"
   sodipodi:docname="keepabove.svg"
   inkscape:version="1.1.1 (3bf5ae0d25, 2021-09-20)"
   xmlns:inkscape="http://www.inkscape.org/namespaces/inkscape"
   xmlns:sodipodi="http://sodipodi.sourceforge.net/DTD/sodipodi-0.dtd"
   xmlns="http://www.w3.org/2000/svg"
   xmlns:svg="http://www.w3.org/2000/svg">
  <defs
     id="defs1073" />
  <sodipodi:namedview
     id="namedview1071"
     pagecolor="#505050"
     bordercolor="#ffffff"
     borderopacity="1"
     inkscape:pageshadow="0"
     inkscape:pageopacity="0"
     inkscape:pagecheckerboard="1"
     showgrid="false"
     inkscape:zoom="6.6666667"
     inkscape:cx="53.925"
     inkscape:cy="-17.325"
     inkscape:window-width="1920"
     inkscape:window-height="1015"
     inkscape:window-x="0"
     inkscape:window-y="0"
     inkscape:window-maximized="1"
     inkscape:current-layer="deactivated-center" />
  <g
     id="active-center">
    <rect
       style="fill:#000000;opacity:.00100002"
       width="24"
       height="24"
       x="0"
       y="0"
       id="rect1040" />
    <path
       style="fill-rule:evenodd;fill:#aaaaac"
       d="m 12,8 c 1.666666,1.9999999 3.333333,4 5,6 -3.333334,0 -6.666667,0 -10,0 1.666667,-2 3.333333,-4 5,-6 z"
       id="path1042" />
  </g>
  <g
     id="hover-center">
    <rect
       style="fill:#000000;opacity:.00100002"
       width="24"
       height="24"
       x="24"
       y="0"
       id="rect1045" />
    <circle
       style="fill:#ffffff;opacity:.18000004"
       cx="36"
       cy="12"
       id="circle1047"
       r="12" />
    <path
       style="fill-rule:evenodd;fill:#aaaaac"
       d="M 36.000002,8 41,14 H 31 Z"
       id="path1049" />
  </g>
  <g
     id="pressed-center">
    <rect
       style="fill:#000000;opacity:.00100002"
       width="24"
       height="24"
       x="48"
       y="0"
       id="rect1052" />
    <circle
       style="fill:#ffffff;opacity:.28000004"
       cx="60"
       cy="12"
       id="circle1054"
       r="12" />
    <path
       style="fill-rule:evenodd;fill:#aaaaac"
       d="m 60.000001,8 c 1.666665,2 3.333332,4 4.999999,6 -3.333334,0 -6.666666,0 -10,0 1.666668,-2 3.333334,-4 5.000001,-6 z"
       id="path1056" />
  </g>
  <g
     id="inactive-center">
    <rect
       style="fill:#000000;opacity:.00100002"
       width="24"
       height="24"
       x="72"
       y="0"
       id="rect1059" />
    <path
       style="opacity:0.5;fill-rule:evenodd;fill:#aaaaac"
       d="m 84,8 c 1.666667,1.9999994 3.333334,4 5,6 -3.333333,0 -6.666667,0 -10,0 1.666667,-2 3.333333,-4 5,-6 z"
       id="path1061" />
  </g>
  <g
     id="deactivated-center">
    <rect
       style="fill:#000000;opacity:.00100002"
       width="24"
       height="24"
       x="96"
       y="0"
       id="rect1064" />
    <path
       style="opacity:0.5;fill-rule:evenodd;fill:#aaaaac"
       d="m 108,8 5,6 h -10 z"
       id="path1066" />
  </g>
</svg>
