<?xml version="1.0" encoding="UTF-8" standalone="no"?>
<svg
   width="24"
   height="24"
   version="1.1"
   id="svg1253"
   sodipodi:docname="maximize.svg"
   inkscape:version="1.1.1 (3bf5ae0d25, 2021-09-20)"
   xmlns:inkscape="http://www.inkscape.org/namespaces/inkscape"
   xmlns:sodipodi="http://sodipodi.sourceforge.net/DTD/sodipodi-0.dtd"
   xmlns="http://www.w3.org/2000/svg"
   xmlns:svg="http://www.w3.org/2000/svg">
  <defs
     id="defs1257" />
  <sodipodi:namedview
     id="namedview1255"
     pagecolor="#505050"
     bordercolor="#ffffff"
     borderopacity="1"
     inkscape:pageshadow="0"
     inkscape:pageopacity="0"
     inkscape:pagecheckerboard="1"
     showgrid="false"
     inkscape:lockguides="true"
     inkscape:zoom="6.6666667"
     inkscape:cx="71.175"
     inkscape:cy="-18.975"
     inkscape:window-width="1920"
     inkscape:window-height="1015"
     inkscape:window-x="0"
     inkscape:window-y="0"
     inkscape:window-maximized="1"
     inkscape:current-layer="deactivated-center" />
  <g
     id="active-center">
    <rect
       style="fill:#000000;opacity:.00100002"
       width="24"
       height="24"
       x="0"
       y="0"
       id="rect1238" />
    <path
       style="fill-rule:evenodd;fill:#aaaaac"
       d="m 8,8 c 0,2.666667 0,5.333333 0,8 h 8 c 0,-2.666667 0,-5.333333 0,-8 z m 2,1.9999998 h 4.000001 c 0,1.3333342 0,2.6666682 0,4.0000012 H 10 c 0,-1.333333 0,-2.666667 0,-4.0000012 z"
       id="path1240" />
  </g>
  <g
     id="hover-center">
    <rect
       style="fill:#000000;opacity:.00100002"
       width="24"
       height="24"
       x="24"
       y="0"
       id="rect1231" />
    <circle
       style="fill:#ffffff;opacity:.18000004"
       cx="36"
       cy="12"
       id="circle1233"
       r="12" />
    <path
       style="fill-rule:evenodd;fill:#aaaaac"
       d="m 32,8 c 0,2.666667 0,5.333333 0,8 h 8 c 0,-2.666667 0,-5.333333 0,-8 z m 2.000001,1.9999998 h 3.999998 c 0,1.3333342 0,2.6666682 0,4.0000012 h -3.999998 c 0,-1.333333 0,-2.666667 0,-4.0000012 z"
       id="path1235" />
  </g>
  <g
     id="pressed-center">
    <rect
       style="fill:#000000;opacity:.00100002"
       width="24"
       height="24"
       x="48"
       y="0"
       id="rect1224" />
    <circle
       style="fill:#ffffff;opacity:.28000004"
       cx="60"
       cy="12"
       id="circle1226"
       r="12" />
    <path
       style="fill-rule:evenodd;fill:#aaaaac"
       d="m 56,8 c 0,2.666667 0,5.333333 0,8 h 8 c 0,-2.666667 0,-5.333333 0,-8 z m 2,1.9999998 h 4 c 0,1.3333342 0,2.6666682 0,4.0000012 h -4 c 0,-1.333333 0,-2.666667 0,-4.0000012 z"
       id="path1228" />
  </g>
  <g
     id="inactive-center">
    <rect
       style="fill:#000000;opacity:.00100002"
       width="24"
       height="24"
       x="72"
       y="0"
       id="rect1243" />
    <path
       style="fill-rule:evenodd;fill:#ffffff;opacity:.25"
       d="m 80,8 c 0,2.666667 0,5.333333 0,8 h 8 c 0,-2.666667 0,-5.333333 0,-8 z m 1.999999,1.9999998 h 4 c 0,1.3333342 0,2.6666682 0,4.0000012 h -4 c 0,-1.333333 0,-2.666667 0,-4.0000012 z"
       id="path1245" />
  </g>
  <g
     id="deactivated-center">
    <rect
       style="fill:#000000;opacity:.00100002"
       width="24"
       height="24"
       x="96"
       y="0"
       id="rect1248" />
    <path
       style="fill-rule:evenodd;fill:#ffffff;opacity:.25"
       d="m 104,8 c 0,2.666667 0,5.333333 0,8 h 8 c 0,-2.666667 0,-5.333333 0,-8 z m 2,1.9999998 h 4 c 0,1.3333342 0,2.6666682 0,4.0000012 h -4 c 0,-1.333333 0,-2.666667 0,-4.0000012 z"
       id="path1250" />
  </g>
</svg>
