<?xml version="1.0" encoding="UTF-8" standalone="no"?>
<svg
   width="24"
   height="24"
   version="1.1"
   id="svg885"
   sodipodi:docname="close.svg"
   inkscape:version="1.1.1 (3bf5ae0d25, 2021-09-20)"
   xmlns:inkscape="http://www.inkscape.org/namespaces/inkscape"
   xmlns:sodipodi="http://sodipodi.sourceforge.net/DTD/sodipodi-0.dtd"
   xmlns="http://www.w3.org/2000/svg"
   xmlns:svg="http://www.w3.org/2000/svg">
  <defs
     id="defs889" />
  <sodipodi:namedview
     id="namedview887"
     pagecolor="#505050"
     bordercolor="#ffffff"
     borderopacity="1"
     inkscape:pageshadow="0"
     inkscape:pageopacity="0"
     inkscape:pagecheckerboard="1"
     showgrid="false"
     inkscape:lockguides="true"
     inkscape:zoom="26.666667"
     inkscape:cx="10.74375"
     inkscape:cy="11.98125"
     inkscape:window-width="1920"
     inkscape:window-height="1015"
     inkscape:window-x="0"
     inkscape:window-y="0"
     inkscape:window-maximized="1"
     inkscape:current-layer="deactivated-center" />
  <g
     id="active-center">
    <rect
       style="fill:#000000;opacity:.00100002"
       width="24"
       height="24"
       x="0"
       y="0"
       id="rect856" />
    <path
       style="fill-rule:evenodd;fill:#aaaaac"
       d="m 8.0031444,8.0002338 h 0.9996069 c 0.010364,-1.2e-4 0.020782,-4.601e-4 0.031238,0 0.2548508,0.0112 0.5096695,0.1285762 0.6872298,0.3124908 l 2.2803539,2.2811834 2.31159,-2.2811834 C 14.578684,8.0822313 14.759659,8.0072335 15.000392,8.0002338 H 16 v 0.9999706 c 0,0.2864617 -0.03433,0.550634 -0.249901,0.7499781 l -2.280354,2.2811835 2.249116,2.249935 C 15.906975,14.469466 15.999991,14.734738 16,15.00003 V 16 h -0.999608 c -0.265195,-10e-6 -0.530377,-0.0931 -0.718467,-0.281241 L 12.001573,13.437575 9.7212189,15.718759 C 9.5331288,15.906943 9.267937,16 9.0027513,16 H 8.0031444 v -0.99997 c -2.9e-6,-0.265283 0.093024,-0.530564 0.2811395,-0.718729 L 10.564638,12.031366 8.2842839,9.7501825 C 8.0736247,9.5555582 7.9812431,9.2809462 8.0031444,9.0002044 Z"
       id="path858" />
  </g>
  <g
     id="hover-center">
    <rect
       style="fill:#000000;opacity:.00100002"
       width="24"
       height="24"
       x="24"
       y="0"
       id="rect878" />
    <circle
       style="fill:#ffffff;opacity:.18000004"
       cx="36"
       cy="12"
       id="circle880"
       r="12" />
    <path
       style="fill-rule:evenodd;fill:#aaaaac"
       d="m 32.003142,8.0002338 h 0.999606 c 0.01036,-1.2e-4 0.02078,-4.601e-4 0.03124,0 0.254851,0.0112 0.50967,0.1285762 0.68723,0.3124908 l 2.280354,2.2811834 2.311592,-2.2811834 C 38.578684,8.0822313 38.75966,8.0072335 39.000393,8.0002338 H 40 v 0.9999706 c 0,0.2864617 -0.03433,0.550634 -0.2499,0.7499781 l -2.280354,2.2811835 2.249116,2.249935 C 39.906976,14.469466 39.999993,14.734738 40,15.00003 V 16 h -0.999606 c -0.265196,-10e-6 -0.530377,-0.0931 -0.718468,-0.281241 l -2.280352,-2.281184 -2.280355,2.281184 C 33.533129,15.906943 33.267936,16 33.002752,16 h -0.999607 v -0.99997 c -3e-6,-0.265283 0.09302,-0.530564 0.281138,-0.718729 L 34.564638,12.031366 32.284283,9.7501825 C 32.073624,9.5555582 31.981243,9.2809462 32.003145,9.0002044 Z"
       id="path882" />
  </g>
  <g
     id="pressed-center">
    <rect
       style="fill:#000000;opacity:.00100002"
       width="24"
       height="24"
       x="48"
       y="0"
       id="rect861" />
    <circle
       style="fill:#ffffff;opacity:.28000004"
       cx="60"
       cy="12"
       id="circle863"
       r="12" />
    <path
       style="fill-rule:evenodd;fill:#aaaaac"
       d="m 56.003144,8.0002338 h 0.999607 c 0.01036,-1.2e-4 0.02078,-4.601e-4 0.03124,0 0.254849,0.0112 0.509668,0.1285762 0.687228,0.3124908 l 2.280353,2.2811834 2.311591,-2.2811834 c 0.265523,-0.2304933 0.4465,-0.3054911 0.687233,-0.3124908 H 64 v 0.9999706 c 0,0.2864617 -0.03433,0.550634 -0.249901,0.7499781 l -2.280353,2.2811835 2.249115,2.249935 C 63.906975,14.469466 63.999992,14.734738 64,15.00003 V 16 h -0.999605 c -0.265198,-10e-6 -0.530378,-0.0931 -0.718468,-0.281241 l -2.280356,-2.281184 -2.280353,2.281184 C 57.533128,15.906943 57.267937,16 57.002751,16 h -0.999607 v -0.99997 c -2e-6,-0.265283 0.09302,-0.530564 0.281139,-0.718729 L 58.564637,12.031366 56.284283,9.7501825 C 56.073624,9.5555582 55.981243,9.2809462 56.003144,9.0002044 Z"
       id="path865" />
  </g>
  <g
     id="inactive-center">
    <rect
       style="fill:#000000;opacity:.00100002"
       width="24"
       height="24"
       x="72"
       y="0"
       id="rect868" />
    <path
       style="opacity:0.5;fill-rule:evenodd;fill:#aaaaac"
       d="m 80.003145,8.0002338 h 0.999607 c 0.01036,-1.2e-4 0.02078,-4.601e-4 0.03124,0 0.254851,0.0112 0.50967,0.1285762 0.68723,0.3124908 l 2.280353,2.2811834 2.311589,-2.2811834 c 0.265525,-0.2304933 0.4465,-0.3054911 0.687233,-0.3124908 H 88 v 0.9999706 c 0,0.2864617 -0.03433,0.550634 -0.2499,0.7499781 l -2.280354,2.2811835 2.249115,2.249935 C 87.906975,14.469466 87.999993,14.734738 88,15.00003 V 16 h -0.999611 c -0.265195,-10e-6 -0.530376,-0.0931 -0.718466,-0.281241 l -2.280352,-2.281184 -2.280353,2.281184 C 81.533129,15.906943 81.267937,16 81.002752,16 h -0.999607 v -0.99997 c -3e-6,-0.265283 0.09302,-0.530564 0.281139,-0.718729 L 82.564637,12.031366 80.284284,9.7501825 C 80.073625,9.5555582 79.981243,9.2809462 80.003145,9.0002044 Z"
       id="path870" />
  </g>
  <g
     id="deactivated-center">
    <rect
       style="fill:#000000;opacity:.00100002"
       width="24"
       height="24"
       x="96"
       y="0"
       id="rect873" />
    <path
       style="opacity:0.5;fill-rule:evenodd;fill:#aaaaac"
       d="m 104.00314,8.0002338 h 0.99961 c 0.0109,-1.2e-4 0.0208,-4.601e-4 0.0312,0 0.25485,0.0112 0.50967,0.1285762 0.68723,0.3124908 l 2.28035,2.2811834 2.31159,-2.2811834 c 0.26551,-0.2304933 0.44649,-0.3054911 0.68723,-0.3124908 H 112 v 0.9999706 c 0,0.2864617 -0.0343,0.550634 -0.24991,0.7499781 l -2.28034,2.2811835 2.2491,2.249935 c 0.18812,0.188165 0.28114,0.453437 0.28115,0.718729 V 16 h -0.99961 c -0.26519,-10e-6 -0.53038,-0.0931 -0.71846,-0.281241 l -2.28036,-2.281184 -2.28035,2.281184 C 105.53313,15.906943 105.26794,16 105.00275,16 h -0.99961 v -0.99997 c 0,-0.265283 0.0931,-0.530564 0.28114,-0.718729 l 2.28036,-2.249935 -2.28036,-2.2811835 c -0.21065,-0.1946243 -0.30303,-0.4692363 -0.28114,-0.7499781 z"
       id="path875" />
  </g>
</svg>
